<?xml version="1.0" encoding="utf-8"?>
<!-- Generator: Adobe Illustrator 23.1.1, SVG Export Plug-In . SVG Version: 6.00 Build 0)  -->
<svg version="1.1" id="Capa_1" xmlns="http://www.w3.org/2000/svg" xmlns:xlink="http://www.w3.org/1999/xlink" x="0px" y="0px"
	 viewBox="0 0 480 480" style="enable-background:new 0 0 480 480;" xml:space="preserve">
<style type="text/css">
	.st0{fill:#222221;}
</style>
<g>
	<path class="st0" d="M368,392H112c-13.2,0-24-10.8-24-24V112c0-13.2,10.8-24,24-24h256c13.2,0,24,10.8,24,24v256
		C392,381.2,381.2,392,368,392z M112,104c-4.4,0-8,3.6-8,8v256c0,4.4,3.6,8,8,8h256c4.4,0,8-3.6,8-8V112c0-4.4-3.6-8-8-8H112z"/>
	<path class="st0" d="M312,336H168c-13.2,0-24-10.8-24-24V168c0-13.2,10.8-24,24-24h144c13.2,0,24,10.8,24,24v144
		C336,325.2,325.2,336,312,336z M168,160c-4.4,0-8,3.6-8,8v144c0,4.4,3.6,8,8,8h144c4.4,0,8-3.6,8-8V168c0-4.4-3.6-8-8-8H168z"/>
</g>
</svg>