<?xml version="1.0" encoding="UTF-8" standalone="no" ?>
<!DOCTYPE svg PUBLIC "-//W3C//DTD SVG 1.1//EN" "http://www.w3.org/Graphics/SVG/1.1/DTD/svg11.dtd">
<svg xmlns="http://www.w3.org/2000/svg" xmlns:xlink="http://www.w3.org/1999/xlink" version="1.1" width="500" height="500" viewBox="0 0 500 500" xml:space="preserve">
<desc>Created with Fabric.js 4.6.0</desc>
<defs>
</defs>
<g transform="matrix(1 0 0 1 250 421.77)" style="" id="awpS-_1Qd1qdneSn1JUFw"  >
		<text xml:space="preserve" font-family="Open Sans" font-size="29" font-style="normal" font-weight="700" line-height="1" style="stroke: none; stroke-width: 1; stroke-dasharray: none; stroke-linecap: butt; stroke-dashoffset: 0; stroke-linejoin: miter; stroke-miterlimit: 4; fill: rgb(0,0,0); fill-rule: nonzero; opacity: 1; white-space: pre;" ><tspan x="-179.71" y="-40.14" >Фото доступно в Telegram</tspan><tspan x="-129.23" y="-7.37" style="white-space: pre; "> RZK Маркет Крым</tspan><tspan x="-115.47" y="25.4" >@RzkCrimeaBot</tspan></text>
</g>
<g transform="matrix(3.25 0 0 3.25 250 170.16)" id="p7Z1w_uoWR8BIyGFTLoKI"  >
<g style="" vector-effect="non-scaling-stroke"   >
		<g transform="matrix(1 0 0 1 0 0)" id="3gpxslbdVUuDBXQugqKXN"  >
<path style="stroke: none; stroke-width: 1; stroke-dasharray: none; stroke-linecap: butt; stroke-dashoffset: 0; stroke-linejoin: miter; stroke-miterlimit: 4; fill: rgb(179,181,179); fill-rule: nonzero; opacity: 1;" vector-effect="non-scaling-stroke"  transform=" translate(-40.05, -40)" d="M 62.4 32.8 L 62.4 22.4 C 62.4 10.1 52.4 0 40 0 C 27.6 0 17.6 10.1 17.6 22.4 L 17.6 32.8 C 13.100000000000001 33.099999999999994 9.500000000000002 36.9 9.500000000000002 41.5 L 9.500000000000002 71.2 C 9.500000000000002 76 13.400000000000002 80 18.300000000000004 80 L 61.800000000000004 80 C 66.60000000000001 80 70.60000000000001 76.1 70.60000000000001 71.2 L 70.60000000000001 41.5 C 70.5 36.9 66.9 33.2 62.4 32.8 z M 45.2 22.4 L 45.2 32.7 L 34.8 32.7 L 34.8 22.4 C 34.8 19.5 37.099999999999994 17.2 40 17.2 C 42.900000000000006 17.2 45.2 19.6 45.2 22.4 z" stroke-linecap="round" />
</g>
		<g transform="matrix(1 0 0 1 -0.05 -21.05)" id="yPRTEzA91afI8WZUljHy7"  >
<path style="stroke: none; stroke-width: 1; stroke-dasharray: none; stroke-linecap: butt; stroke-dashoffset: 0; stroke-linejoin: miter; stroke-miterlimit: 4; fill: rgb(255,255,255); fill-rule: nonzero; opacity: 1;" vector-effect="non-scaling-stroke"  transform=" translate(-40, -18.95)" d="M 29.6 32.8 L 22.700000000000003 32.8 L 22.700000000000003 22.4 C 22.700000000000003 12.899999999999999 30.400000000000002 5.099999999999998 40 5.099999999999998 C 49.5 5.099999999999998 57.3 12.799999999999997 57.3 22.4 L 57.3 32.7 L 50.4 32.7 L 50.4 22.4 C 50.4 16.7 45.699999999999996 11.999999999999998 40 11.999999999999998 C 34.300000000000004 11.999999999999998 29.6 16.7 29.6 22.4 L 29.6 32.8 z" stroke-linecap="round" />
</g>
		<g transform="matrix(1 0 0 1 -0.1 16.35)" id="kslQ6k7HYL7Tx1OeNHMKZ"  >
<path style="stroke: none; stroke-width: 1; stroke-dasharray: none; stroke-linecap: butt; stroke-dashoffset: 0; stroke-linejoin: miter; stroke-miterlimit: 4; fill: rgb(255,255,255); fill-rule: nonzero; opacity: 1;" vector-effect="non-scaling-stroke"  transform=" translate(-39.95, -56.35)" d="M 61.8 38.6 L 18.2 38.6 C 16.599999999999998 38.6 15.299999999999999 39.9 15.299999999999999 41.5 L 15.299999999999999 71.2 C 15.299999999999999 72.8 16.599999999999998 74.10000000000001 18.2 74.10000000000001 L 61.7 74.10000000000001 C 63.300000000000004 74.10000000000001 64.60000000000001 72.80000000000001 64.60000000000001 71.2 L 64.60000000000001 41.5 C 64.7 39.9 63.4 38.6 61.8 38.6 z" stroke-linecap="round" />
</g>
		<g transform="matrix(1 0 0 1 -0.05 16.35)" id="pJQSQASsypG5pr2-EBDoE"  >
<path style="stroke: none; stroke-width: 1; stroke-dasharray: none; stroke-linecap: butt; stroke-dashoffset: 0; stroke-linejoin: miter; stroke-miterlimit: 4; fill: rgb(179,181,179); fill-rule: nonzero; opacity: 1;" vector-effect="non-scaling-stroke"  transform=" translate(-40, -56.35)" d="M 42.1 56.1 L 45.5 66.7 L 34.5 66.7 L 37.9 56.1 C 36 55.300000000000004 34.699999999999996 53.4 34.699999999999996 51.300000000000004 C 34.699999999999996 48.400000000000006 37.099999999999994 46.00000000000001 39.99999999999999 46.00000000000001 C 42.89999999999999 46.00000000000001 45.29999999999999 48.400000000000006 45.29999999999999 51.300000000000004 C 45.3 53.5 44 55.3 42.1 56.1 z" stroke-linecap="round" />
</g>
</g>
</g>
</svg>