<?xml version="1.0" encoding="UTF-8" standalone="no" ?>
<!DOCTYPE svg PUBLIC "-//W3C//DTD SVG 1.1//EN" "http://www.w3.org/Graphics/SVG/1.1/DTD/svg11.dtd">
<svg xmlns="http://www.w3.org/2000/svg" xmlns:xlink="http://www.w3.org/1999/xlink" version="1.1" width="1238" height="200" viewBox="0 0 1238 200" xml:space="preserve">
<desc>Created with Fabric.js 4.6.0</desc>
<defs>
</defs>
<g transform="matrix(-1 0 0 -1 100 100)" id="zk8GHJazUiABPRPuHnFoT"  >
<path style="stroke: rgb(148,201,171); stroke-width: 0; stroke-dasharray: none; stroke-linecap: butt; stroke-dashoffset: 0; stroke-linejoin: miter; stroke-miterlimit: 4; fill: rgb(0,0,0); fill-rule: nonzero; opacity: 1;" vector-effect="non-scaling-stroke"  transform=" translate(-100, -100)" d="M 0 0 L 200 0 L 200 200 L 0 200 z" stroke-linecap="round" />
</g>
<g transform="matrix(-1 0 0 -1 100 100)" id="kB5h7nKnwxCX8SmufwDWY"  >
<path style="stroke: rgb(236,249,161); stroke-width: 0; stroke-dasharray: none; stroke-linecap: butt; stroke-dashoffset: 0; stroke-linejoin: miter; stroke-miterlimit: 4; fill: rgb(255,255,255); fill-rule: nonzero; opacity: 1;" vector-effect="non-scaling-stroke"  transform=" translate(-65, -65)" d="M 0 0 L 130 0 L 130 130 L 0 130 z" stroke-linecap="round" />
</g>
<g transform="matrix(-1 0 0 -1 100 100)" id="G7pb5m-v_wdVhaaaMYpLD"  >
<path style="stroke: rgb(58,204,31); stroke-width: 0; stroke-dasharray: none; stroke-linecap: butt; stroke-dashoffset: 0; stroke-linejoin: miter; stroke-miterlimit: 4; fill: rgb(247,47,58); fill-rule: nonzero; opacity: 1;" vector-effect="non-scaling-stroke"  transform=" translate(-8, -36)" d="M 0 0 L 16 0 L 16 72 L 0 72 z" stroke-linecap="round" />
</g>
<g transform="matrix(1 0 0 1 741.13 112)" id="I1DckulC_xh003ZVQ9F6i"  >
<path style="stroke: rgb(0,0,0); stroke-width: 0.94; stroke-dasharray: none; stroke-linecap: round; stroke-dashoffset: 0; stroke-linejoin: miter; stroke-miterlimit: 4; fill: rgb(0,0,0); fill-rule: evenodd; opacity: 1;" vector-effect="non-scaling-stroke"  transform=" translate(-493.01, -54.84)" d="M 255.41 0.001 L 259.922 0.001 L 295.02 80.685 L 330.234 0.001 L 334.863 0.001 L 334.863 85.314 L 331.699 85.314 L 331.699 4.689 L 296.309 85.314 L 293.789 85.314 L 258.574 5.099 L 258.574 85.314 L 255.41 85.314 L 255.41 0.001 Z M 924.551 21.915 L 953.379 80.509 L 982.207 21.915 L 986.016 21.915 L 986.016 85.314 L 982.793 85.314 L 982.793 28.009 L 954.609 85.314 L 952.148 85.314 L 923.379 26.603 L 923.379 85.314 L 920.215 85.314 L 920.215 21.915 L 924.551 21.915 Z M 206.543 85.314 L 167.344 40.431 L 153.691 53.028 L 153.691 85.314 L 150.527 85.314 L 150.527 0.001 L 153.691 0.001 L 153.691 49.337 L 167.754 35.567 L 203.145 0.001 L 207.715 0.001 L 169.688 38.263 L 210.645 85.314 L 206.543 85.314 Z M 748.418 85.314 L 708.633 43.653 L 695.566 43.653 L 695.566 85.314 L 692.402 85.314 L 692.402 0.001 L 695.566 0.001 L 695.566 40.548 L 709.512 40.548 L 745.723 0.001 L 749.883 0.001 L 712.148 42.54 L 752.578 85.314 L 748.418 85.314 Z M 131.426 2.228 L 76.934 82.149 L 133.301 82.149 L 133.301 85.314 L 72.598 85.314 L 72.598 82.735 L 127.031 3.106 L 74.941 3.106 L 74.941 0.001 L 131.426 0.001 L 131.426 2.228 Z M 55.43 85.314 L 32.754 48.81 L 3.164 48.81 L 3.164 85.314 L 0 85.314 L 0 0.001 L 27.188 0.001 Q 38.216 0.001 45.371 4.892 C 46.14970049115115 5.424200531269769 46.896330478727975 6.0018704232679365 47.606999999999985 6.62199999999999 C 51.825360415426815 10.290431548574965 54.469555086420755 15.442027504279023 54.991 21.007999999999996 C 55.129224187160766 22.20365769026971 55.197340687620255 23.40638138955945 55.19499999999999 24.609999999999992 Q 55.195 33.341 49.775 39.874 Q 44.355 46.407 35.977 47.989 L 58.77 84.493 L 58.77 85.314 L 55.43 85.314 Z M 529.688 85.314 L 500.449 54.317 L 488.848 54.317 L 488.848 85.314 L 485.625 85.314 L 485.625 21.915 L 488.848 21.915 L 488.848 51.212 L 501.035 51.212 L 526.172 21.915 L 530.742 21.915 L 503.789 52.97 L 534.434 85.314 L 529.688 85.314 Z M 401.25 85.314 L 397.617 85.314 Q 396.559 81.661 396.456 75.141 C 396.44859617648336 74.66470276493004 396.4449293969631 74.18835477089368 396.445 73.712 C 393.9719315079741 77.74995995343633 390.4206234713557 81.01727417398027 386.191 83.146 C 382.8451912101529 84.84351672051208 379.21332847542226 85.90516943477236 375.48 86.277 C 374.1526629303114 86.41755164813225 372.81875635425445 86.48698422266175 371.484 86.48500000000001 C 369.428437164529 86.50092582501877 367.37809910040295 86.27572090751532 365.375 85.814 C 362.3929160119703 85.14196557121446 359.6277598827198 83.73067334954499 357.334 81.71 C 354.0178432563297 78.79849172768448 352.07971768014306 74.62607756591638 351.994 70.214 C 351.97983533505493 69.89586455717148 351.97283356166974 69.57745057703669 351.973 69.25900000000001 C 351.8865805167039 64.63186564654099 353.86778258886096 60.207156577543245 357.377 57.190000000000005 C 358.1561127832517 56.496356186659206 358.9838963813275 55.85939391862024 359.854 55.284000000000006 Q 367.734 50.04 380.801 49.923 L 396.445 49.923 L 396.445 40.665 C 396.4606490511488 38.92525073106038 396.25261116701 37.19070546443656 395.826 35.50399999999999 C 395.1315552937132 32.71173823798072 393.5997065945796 30.198668914254057 391.436 28.301999999999992 C 389.69571707974603 26.807060961890354 387.6597605891013 25.695888724904183 385.461 25.041 Q 383 24.27 380.026 24.024 C 379.05569616006676 23.944790732778923 378.0825307420128 23.905757358108946 377.109 23.906999999999996 C 374.83668873618024 23.890226593490173 372.57085902324866 24.151500569577443 370.362 24.685000000000002 C 367.5599398427017 25.360835983493793 364.9291751105681 26.612364836644723 362.637 28.360000000000003 C 361.30358137497416 29.3611829607853 360.1307489069543 30.559980954980446 359.159 31.91500000000001 C 357.6181659541742 34.09525522616441 356.8051780004774 36.706405946152366 356.836 39.37599999999999 L 353.672 39.259 C 353.6520558415801 34.8830963033166 355.4640605036686 30.698478772697953 358.669 27.71900000000001 C 359.2405781155046 27.159238907808234 359.84142074935215 26.630163588559142 360.469 26.13400000000001 C 364.0729563838693 23.29956065914346 368.3937122851004 21.522442066113083 372.949 21.001000000000005 C 374.32875276398755 20.826448036371907 375.7182524896423 20.740272332232742 377.109 20.743 C 379.3543594718752 20.727817181179258 381.59547717992695 20.940235872598723 383.798 21.377 Q 387.885 22.217 391.057 24.171 C 391.87933487999084 24.677080194776174 392.6619314422787 25.24505608513376 393.398 25.869999999999994 C 396.4589839500487 28.479600616248653 398.50583516005645 32.08167648763873 399.181 36.04699999999998 C 399.44504573306637 37.45453157707669 399.58823412522753 38.882066318552596 399.609 40.314 L 399.609 70.606 Q 399.609 80.554 401.102 84.425 C 401.14865540436057 84.54641388598556 401.1980008984969 84.66677688181801 401.25 84.786 L 401.25 85.314 Z M 468.457 53.204 L 468.457 54.2 C 468.4751121494163 57.373057257924046 468.2225299047343 60.54187715412028 467.702 63.67200000000001 Q 466.262 72.026 462.07 77.755 C 460.17575186685195 80.42668272282185 457.6857475690734 82.62088560257756 454.797 84.164 Q 450.348 86.485 444.668 86.485 C 442.23991351377464 86.49970807555499 439.8188676459906 86.22238400305608 437.457 85.659 C 435.50550989966496 85.18682481424172 433.6181808040319 84.48071325257717 431.836 83.55599999999998 C 428.21646675354634 81.72310342579193 425.1745973091268 78.92454200497309 423.047 75.47 L 423.047 109.689 L 419.883 109.689 L 419.883 21.915 L 423.047 21.915 L 423.047 33.224 C 424.397884901419 30.690669558985206 426.1895814953154 28.418455583357787 428.338 26.514000000000003 C 429.4378625679654 25.550860312759564 430.62918734304856 24.69747388405224 431.895 23.966 Q 437.461 20.743 444.551 20.743 C 447.36741351797025 20.70865965842194 450.16670832667285 21.185373262373105 452.813 22.149999999999995 C 456.5248509131865 23.57311167713886 459.7416173563492 26.046932602803217 462.07 29.26899999999999 C 464.0534416698109 31.975295291132575 465.54984801499035 35.00668562132654 466.492 38.22699999999999 Q 467.72 42.245 468.181 47.091 C 468.3694038902355 49.12317027622214 468.4615069632276 51.16311986028105 468.457 53.20399999999997 Z M 815.391 53.204 L 815.391 54.2 C 815.4091121494163 57.373057257924046 815.1565299047343 60.54187715412028 814.636 63.67200000000001 Q 813.195 72.026 809.004 77.755 C 807.109751866852 80.42668272282187 804.6197475690734 82.62088560257756 801.731 84.164 Q 797.281 86.485 791.602 86.485 C 789.1739135137747 86.49970807555499 786.7528676459906 86.22238400305608 784.391 85.659 C 782.4395098996649 85.18682481424172 780.5521808040319 84.48071325257717 778.77 83.55599999999998 C 775.150099225043 81.72325421193597 772.1078693104575 78.92467957151062 769.98 75.47 L 769.98 109.689 L 766.816 109.689 L 766.816 21.915 L 769.98 21.915 L 769.98 33.224 C 771.330884901419 30.690669558985213 773.1225814953153 28.41845558335779 775.271 26.514000000000003 C 776.3708625679653 25.55086031275956 777.5621873430485 24.697473884052247 778.828 23.96600000000001 Q 784.395 20.743 791.484 20.743 C 794.3004135179702 20.708659658421944 797.0997083266728 21.185373262373112 799.746 22.149999999999995 C 803.4582168731016 23.572943652775777 806.675349385759 26.04677886098572 809.004 29.269 C 810.9874416698109 31.975295291132575 812.4838480149904 35.00668562132654 813.426 38.22699999999999 Q 814.654 42.245 815.114 47.091 C 815.3027377491172 49.12315444829742 815.3951745304248 51.16310406610905 815.391 53.20399999999998 Z M 540.234 55.021 L 540.234 52.384 C 540.2096304942165 48.535030792349275 540.7669195889307 44.70446896891129 541.887 41.022000000000006 C 542.3903221230697 39.39467467584365 543.0130120367284 37.80669841186507 543.75 36.271 C 545.0183092230316 33.57843044796033 546.6820303974529 31.09060103377809 548.686 28.890000000000004 C 550.0964560243671 27.35786415670679 551.6850674383358 25.99989011412371 553.418 24.845 C 557.3742022037609 22.154865340441997 562.05185624106 20.72486557438141 566.836 20.743000000000002 C 569.8458638764552 20.708478584147024 572.8358357059512 21.234784161937412 575.653 22.295000000000005 C 578.936851430404 23.582834580985658 581.8618213221816 25.643382738591903 584.18 28.302 C 587.2114526872826 31.745147461072065 589.2743943225156 35.931421294630354 590.158 40.43300000000001 C 590.6793456056043 42.976918624746226 590.9340557000922 45.56825869130015 590.918 48.16499999999999 L 590.918 51.505 L 543.398 51.505 L 543.398 54.962 C 543.3540300139459 59.92515842693052 544.4674858346178 64.83025316461426 546.65 69.28800000000001 C 547.9560702402433 71.98730230833952 549.7060602259145 74.44817290824027 551.827 76.56800000000001 C 552.9848745995425 77.71189943665301 554.2538044496151 78.73762889835373 555.615 79.63 C 559.2801850410463 82.0866737608026 563.5956682822228 83.3924965764576 568.008 83.38 C 569.6396372082747 83.38720570292509 571.2694217856143 83.26919258378645 572.883 83.027 Q 575.584 82.609 577.844 81.695 C 578.1928795634034 81.55422928267416 578.5373738208318 81.40282522374628 578.877 81.241 C 581.0829148134768 80.1745382036847 583.0845974836991 78.72929217699395 584.791 76.971 C 585.5110045911034 76.23743010634256 586.1871755243578 75.46208743621085 586.816 74.649 L 589.043 76.231 C 585.2020706918507 81.91217202133932 579.0244693934329 85.58095939975263 572.198 86.235 C 570.807831522046 86.40472903780488 569.4084877583996 86.48822210246158 568.008 86.485 Q 560.332 86.485 553.916 82.355 C 549.7410253948394 79.6526921252522 546.3538069810546 75.89567045863329 544.097 71.464 C 544.0192122353495 71.31557952363151 543.9425433943146 71.1665752977941 543.867 71.017 C 541.799305923334 66.87287348139726 540.5936664928779 62.35240600061242 540.323 57.72899999999999 C 540.263385894249 56.827566366130014 540.2337028917905 55.924402650872395 540.234 55.021000000000015 Z M 649.629 21.915 L 649.629 25.138 L 624.727 25.138 L 624.727 85.314 L 621.563 85.314 L 621.563 25.138 L 597.949 25.138 L 597.949 21.915 L 649.629 21.915 Z M 836.309 21.915 L 836.309 46.056 L 857.109 46.056 Q 865.978 46.209 871.662 50.288 C 872.2034736927704 50.676134313833224 872.724503449171 51.092023536431036 873.223 51.534 Q 879.199 56.837 879.199 65.685 C 879.2221614642973 67.91276540515845 878.8927570042504 70.13017042822092 878.223 72.255 C 877.2782970435238 75.16756959682102 875.5720471638812 77.77458959706007 873.281 79.806 Q 867.363 85.138 857.109 85.314 L 833.145 85.314 L 833.145 21.915 L 836.309 21.915 Z M 423.047 39.903 L 423.047 69.552 C 423.99745564271456 72.16379801731318 425.45968924571235 74.55960369048813 427.348 76.599 C 428.4670839237806 77.78905133300776 429.7285963267874 78.83661714370484 431.104 79.718 C 433.5263532023498 81.2552392415577 436.2243663410332 82.30707039595127 439.048 82.815 C 440.9209804027927 83.1611138301257 442.82233214078786 83.33052463826543 444.727 83.321 Q 454.453 83.321 459.844 75.587 C 461.32810739591457 73.40270628782187 462.4686815808134 71.00385821650738 463.226 68.47399999999999 Q 465.234 62.054 465.234 52.97 C 465.24659410675343 50.31013847409458 465.0698139288525 47.652754779069944 464.705 45.01799999999999 Q 464.086 40.71 462.745 37.196 C 462.0037632464463 35.22013485065736 461.0191760963999 33.34434684456431 459.814 31.612 C 456.99556900911915 27.394989579073574 452.4590927217073 24.637459018759905 447.418 24.076999999999998 C 446.486105854405 23.96205138606649 445.5479552203946 23.90527473680278 444.609 23.907 C 442.3386191192275 23.889511548538966 440.0760339507199 24.174688751704014 437.881 24.754999999999992 C 435.4258148758351 25.411746948033578 433.1164748913491 26.525536160471866 431.074 28.038000000000004 Q 425.508 32.169 423.047 39.903 Z M 769.98 39.903 L 769.98 69.552 C 770.9304556427146 72.16379801731318 772.3926892457123 74.55960369048813 774.281 76.599 C 775.4000839237806 77.78905133300778 776.6615963267874 78.83661714370484 778.037 79.71799999999999 C 780.4596554745652 81.25535917367986 783.15801938304 82.30719467079082 785.982 82.815 C 787.8546520500307 83.16105145207285 789.7556660538288 83.33046199908269 791.66 83.321 Q 801.387 83.321 806.777 75.587 C 808.2614580896067 73.40276844833254 809.4023709844143 71.00391730415065 810.16 68.474 Q 812.168 62.054 812.168 52.97 C 812.1805941067535 50.31013847409458 812.0038139288525 47.652754779069944 811.639 45.01799999999999 Q 811.02 40.71 809.678 37.196 C 808.937077496225 35.22018435788258 807.9528273945158 33.34439849851595 806.748 31.611999999999995 C 803.9295690091192 27.394989579073567 799.3930927217073 24.637459018759895 794.352 24.077 C 793.4201058544049 23.962051386066495 792.4819552203946 23.905274736802788 791.543 23.907000000000004 C 789.2726191192276 23.889511548538973 787.01003395072 24.174688751704025 784.815 24.755 C 782.3598148758351 25.41174694803357 780.0504748913492 26.52553616047186 778.008 28.038 Q 772.441 32.169 769.98 39.903 Z M 3.164 3.165 L 3.164 45.646 L 30.059 45.646 C 32.46044772143937 45.6669900626146 34.85352712249942 45.36015913139476 37.17200000000001 44.734 C 40.49117642481884 43.831829100935465 43.52082273750212 42.08706974064657 45.96699999999999 39.669000000000004 C 49.797388289763525 35.926546083998204 51.97553771944116 30.810000720680097 52.018 25.45499999999999 C 52.026813607983726 25.173420083182016 52.03114748957334 24.89171777985732 52.031000000000006 24.609999999999996 C 52.053974886266104 22.28392947149286 51.7362724823917 19.967026574945372 51.088 17.733000000000004 C 50.07128875813352 14.290056315479836 48.06643248309463 11.221228448068587 45.321999999999996 8.906999999999991 C 42.76198247754466 6.755362889188335 39.75640751492356 5.198611675594362 36.52199999999999 4.349 Q 33.183 3.424 29.221 3.222 C 28.46560783862172 3.1837134424657045 27.70936174695809 3.1647072576223043 26.953000000000014 3.164999999999998 L 3.164 3.165 Z M 899.59 21.915 L 899.59 85.314 L 896.426 85.314 L 896.426 21.915 L 899.59 21.915 Z M 856.992 49.22 L 836.309 49.22 L 836.309 82.149 L 856.523 82.149 C 858.4538235173559 82.16206127004315 860.381408567528 81.98892689357704 862.279 81.632 Q 865.617 80.98 868.23 79.506 C 869.1624319959409 78.98183724711879 870.0401292346642 78.36577418528204 870.85 77.667 C 873.8332147475662 75.10568064471825 875.6675474526697 71.45718065097877 875.944 67.535 C 876.005599283946 66.88081948659023 876.0359671081928 66.22407357320888 876.035 65.567 C 876.0557404480707 63.651130356001794 875.7507313457054 61.74566883512759 875.133 59.932 C 874.2977417540693 57.56764228939762 872.8621142859573 55.46106746640954 870.967 53.819 C 869.0315466684121 52.1373167784726 866.7453798066019 50.90848500890723 864.275 50.222 Q 861.028 49.273 856.992 49.22 Z M 396.445 68.204 L 396.445 53.146 L 381.797 53.146 C 379.17897073027683 53.13242438935117 376.56331527448003 53.30586570550788 373.97 53.665000000000006 Q 365.965 54.82 360.996 58.536 Q 355.137 62.931 355.137 69.493 C 355.1022382496031 73.00839130874965 356.55557634416266 76.37457079444913 359.138 78.76 C 359.3423655423732 78.95767110849732 359.55176773852816 79.15006771228934 359.766 79.337 C 362.14567465386904 81.39850001757402 365.07495228043393 82.7211753819952 368.195 83.143 C 369.2838828168292 83.30396637320821 370.3832885027113 83.38318776194463 371.484 83.38 C 374.0269327476475 83.39621213185879 376.5633885795948 83.12176492676184 379.044 82.56199999999998 C 381.7883623828902 81.94138024658999 384.4113440230103 80.87164433616616 386.807 79.39600000000002 Q 393.223 75.411 396.445 68.204 Z M 543.574 48.341 L 587.754 48.341 L 587.754 47.579 Q 587.754 41.134 585.029 35.597 C 584.0034604180877 33.47205615165378 582.6465142478909 31.523724486386136 581.009 29.824999999999996 C 579.9599434684303 28.749401295594975 578.7925126084408 27.795999426603608 577.529 26.98299999999999 C 574.3432779596802 24.93159708975797 570.6248054731496 23.861923343515762 566.836 23.907 Q 557.578 23.907 551.133 30.792 C 547.7685728331026 34.4187846574891 545.4283782978745 38.87450676991046 544.352 43.703 C 543.9936323444823 45.230748072581335 543.7337640482781 46.77993722141773 543.574 48.34100000000001 Z" stroke-linecap="round" />
</g>
</svg>