<?xml version="1.0" encoding="UTF-8" standalone="no" ?>
<!DOCTYPE svg PUBLIC "-//W3C//DTD SVG 1.1//EN" "http://www.w3.org/Graphics/SVG/1.1/DTD/svg11.dtd">
<svg xmlns="http://www.w3.org/2000/svg" xmlns:xlink="http://www.w3.org/1999/xlink" version="1.1" width="268" height="40" viewBox="0 0 1340 200" xml:space="preserve">
<desc>Created with Fabric.js 4.6.0</desc>
<defs>
</defs>
<g transform="matrix(-1 0 0 -1 100 100)" id="zk8GHJazUiABPRPuHnFoT"  >
<path style="stroke: rgb(148,201,171); stroke-width: 0; stroke-dasharray: none; stroke-linecap: butt; stroke-dashoffset: 0; stroke-linejoin: miter; stroke-miterlimit: 4; fill: rgb(255,215,0); fill-rule: nonzero; opacity: 1;" vector-effect="non-scaling-stroke"  transform=" translate(-100, -100)" d="M 0 0 L 200 0 L 200 200 L 0 200 z" stroke-linecap="round" />
</g>
<g transform="matrix(-1 0 0 -1 100 50)" id="CWCfyfoE2JIBjJTpAembM"  >
<path style="stroke: rgb(217,178,150); stroke-width: 0; stroke-dasharray: none; stroke-linecap: butt; stroke-dashoffset: 0; stroke-linejoin: miter; stroke-miterlimit: 4; fill: rgb(0,87,184); fill-rule: nonzero; opacity: 1;" vector-effect="non-scaling-stroke"  transform=" translate(-100, -50)" d="M 0 0 L 200 0 L 200 100 L 0 100 z" stroke-linecap="round" />
</g>
<g transform="matrix(-1 0 0 -1 100 100)" id="kB5h7nKnwxCX8SmufwDWY"  >
<path style="stroke: rgb(236,249,161); stroke-width: 0; stroke-dasharray: none; stroke-linecap: butt; stroke-dashoffset: 0; stroke-linejoin: miter; stroke-miterlimit: 4; fill: rgb(255,255,255); fill-rule: nonzero; opacity: 1;" vector-effect="non-scaling-stroke"  transform=" translate(-65, -65)" d="M 0 0 L 130 0 L 130 130 L 0 130 z" stroke-linecap="round" />
</g>
<g transform="matrix(-1 0 0 -1 100 103)" id="G7pb5m-v_wdVhaaaMYpLD"  >
<path style="stroke: rgb(58,204,31); stroke-width: 0; stroke-dasharray: none; stroke-linecap: butt; stroke-dashoffset: 0; stroke-linejoin: miter; stroke-miterlimit: 4; fill: rgb(247,47,58); fill-rule: nonzero; opacity: 1;" vector-effect="non-scaling-stroke"  transform=" translate(-8, -36)" d="M 0 0 L 16 0 L 16 72 L 0 72 z" stroke-linecap="round" />
</g>
<g transform="matrix(1 0 0 1 790.98 110.69)" id="RYxVMxPzphTJTtQC7AP3B"  >
<path style="stroke: rgb(0,0,0); stroke-width: 0.94; stroke-dasharray: none; stroke-linecap: round; stroke-dashoffset: 0; stroke-linejoin: miter; stroke-miterlimit: 4; fill: rgb(0,0,0); fill-rule: evenodd; opacity: 1;" vector-effect="non-scaling-stroke"  transform=" translate(-544.28, -54.84)" d="M 255.41 0.001 L 259.922 0.001 L 295.02 80.685 L 330.234 0.001 L 334.863 0.001 L 334.863 85.314 L 331.699 85.314 L 331.699 4.689 L 296.309 85.314 L 293.789 85.314 L 258.574 5.099 L 258.574 85.314 L 255.41 85.314 L 255.41 0.001 Z M 206.543 85.314 L 167.344 40.431 L 153.691 53.028 L 153.691 85.314 L 150.527 85.314 L 150.527 0.001 L 153.691 0.001 L 153.691 49.337 L 167.754 35.567 L 203.145 0.001 L 207.715 0.001 L 169.688 38.263 L 210.645 85.314 L 206.543 85.314 Z M 131.426 2.228 L 76.934 82.149 L 133.301 82.149 L 133.301 85.314 L 72.598 85.314 L 72.598 82.735 L 127.031 3.106 L 74.941 3.106 L 74.941 0.001 L 131.426 0.001 L 131.426 2.228 Z M 686.543 0.001 L 719.824 58.888 L 748.945 0.001 L 752.813 0.001 L 717.773 70.138 L 715.664 74.122 C 714.4446731910135 76.38579600592503 712.9419090297445 78.4850285004348 711.192 80.369 C 707.5741042272743 84.36075636797369 702.417932849557 86.60913983364736 697.031 86.544 C 696.4160276444592 86.5457307190028 695.8012233398777 86.52338026408856 695.188 86.477 Q 693.383 86.335 692.204 85.891 C 692.1131186399026 85.85688918360759 692.023091333726 85.82054482666965 691.934 85.782 L 692.813 82.794 Q 694.419 83.368 697.205 83.38 C 697.2446666211483 83.38008498377413 697.2843333788517 83.38008498377413 697.324 83.38 C 700.6217355426095 83.41426869596671 703.8337520623104 82.32996636776214 706.436 80.304 C 707.4740720024404 79.4932700968951 708.4242677134306 78.57592065739586 709.271 77.567 Q 711.752 74.661 714.077 70.088 C 714.0786668891795 70.08500012362369 714.0803335558509 70.08200012361543 714.082 70.07900000000001 L 718.066 62.286 L 682.617 0.001 L 686.543 0.001 Z M 55.43 85.314 L 32.754 48.81 L 3.164 48.81 L 3.164 85.314 L 0 85.314 L 0 0.001 L 27.188 0.001 Q 38.216 0.001 45.371 4.892 C 46.14970049115115 5.424200531269769 46.896330478727975 6.0018704232679365 47.606999999999985 6.62199999999999 C 51.825360415426815 10.290431548574965 54.469555086420755 15.442027504279023 54.991 21.007999999999996 C 55.129224187160766 22.20365769026971 55.197340687620255 23.40638138955945 55.19499999999999 24.609999999999992 Q 55.195 33.341 49.775 39.874 Q 44.355 46.407 35.977 47.989 L 58.77 84.493 L 58.77 85.314 L 55.43 85.314 Z M 1023.867 21.915 L 1023.867 85.314 L 1020.645 85.314 L 1020.645 54.317 L 981.445 54.317 L 981.445 85.314 L 978.281 85.314 L 978.281 21.915 L 981.445 21.915 L 981.445 51.153 L 1020.645 51.153 L 1020.645 21.915 L 1023.867 21.915 Z M 529.688 85.314 L 500.449 54.317 L 488.848 54.317 L 488.848 85.314 L 485.625 85.314 L 485.625 21.915 L 488.848 21.915 L 488.848 51.212 L 501.035 51.212 L 526.172 21.915 L 530.742 21.915 L 503.789 52.97 L 534.434 85.314 L 529.688 85.314 Z M 809.941 85.314 L 780.703 54.317 L 769.102 54.317 L 769.102 85.314 L 765.879 85.314 L 765.879 21.915 L 769.102 21.915 L 769.102 51.212 L 781.289 51.212 L 806.426 21.915 L 810.996 21.915 L 784.043 52.97 L 814.688 85.314 L 809.941 85.314 Z M 401.25 85.314 L 397.617 85.314 Q 396.559 81.661 396.456 75.141 C 396.44859617648336 74.66470276493004 396.4449293969631 74.18835477089368 396.445 73.712 C 393.9719315079741 77.74995995343633 390.4206234713557 81.01727417398027 386.191 83.146 C 382.8451912101529 84.84351672051208 379.21332847542226 85.90516943477236 375.48 86.277 C 374.1526629303114 86.41755164813225 372.81875635425445 86.48698422266175 371.484 86.48500000000001 C 369.428437164529 86.50092582501877 367.37809910040295 86.27572090751532 365.375 85.814 C 362.3929160119703 85.14196557121446 359.6277598827198 83.73067334954499 357.334 81.71 C 354.0178432563297 78.79849172768448 352.07971768014306 74.62607756591638 351.994 70.214 C 351.97983533505493 69.89586455717148 351.97283356166974 69.57745057703669 351.973 69.25900000000001 C 351.8865805167039 64.63186564654099 353.86778258886096 60.207156577543245 357.377 57.190000000000005 C 358.1561127832517 56.496356186659206 358.9838963813275 55.85939391862024 359.854 55.284000000000006 Q 367.734 50.04 380.801 49.923 L 396.445 49.923 L 396.445 40.665 C 396.4606490511488 38.92525073106038 396.25261116701 37.19070546443656 395.826 35.50399999999999 C 395.1315552937132 32.71173823798072 393.5997065945796 30.198668914254057 391.436 28.301999999999992 C 389.69571707974603 26.807060961890354 387.6597605891013 25.695888724904183 385.461 25.041 Q 383 24.27 380.026 24.024 C 379.05569616006676 23.944790732778923 378.0825307420128 23.905757358108946 377.109 23.906999999999996 C 374.83668873618024 23.890226593490173 372.57085902324866 24.151500569577443 370.362 24.685000000000002 C 367.5599398427017 25.360835983493793 364.9291751105681 26.612364836644723 362.637 28.360000000000003 C 361.30358137497416 29.3611829607853 360.1307489069543 30.559980954980446 359.159 31.91500000000001 C 357.6181659541742 34.09525522616441 356.8051780004774 36.706405946152366 356.836 39.37599999999999 L 353.672 39.259 C 353.6520558415801 34.8830963033166 355.4640605036686 30.698478772697953 358.669 27.71900000000001 C 359.2405781155046 27.159238907808234 359.84142074935215 26.630163588559142 360.469 26.13400000000001 C 364.0729563838693 23.29956065914346 368.3937122851004 21.522442066113083 372.949 21.001000000000005 C 374.32875276398755 20.826448036371907 375.7182524896423 20.740272332232742 377.109 20.743 C 379.3543594718752 20.727817181179258 381.59547717992695 20.940235872598723 383.798 21.377 Q 387.885 22.217 391.057 24.171 C 391.87933487999084 24.677080194776174 392.6619314422787 25.24505608513376 393.398 25.869999999999994 C 396.4589839500487 28.479600616248653 398.50583516005645 32.08167648763873 399.181 36.04699999999998 C 399.44504573306637 37.45453157707669 399.58823412522753 38.882066318552596 399.609 40.314 L 399.609 70.606 Q 399.609 80.554 401.102 84.425 C 401.14865540436057 84.54641388598556 401.1980008984969 84.66677688181801 401.25 84.786 L 401.25 85.314 Z M 935.742 85.314 L 932.109 85.314 Q 931.051 81.661 930.948 75.141 C 930.9405961764834 74.66470276493004 930.9369293969631 74.18835477089371 930.937 73.71200000000003 C 928.464202789979 77.74982117311653 924.9132557268669 81.01712192347253 920.684 83.146 C 917.3378830896646 84.84363504034609 913.7056705069872 85.9052909025906 909.972 86.277 C 908.644994621594 86.41751603048237 907.3114228086602 86.48694855541109 905.977 86.48499999999999 C 903.9211029867024 86.50100406996746 901.8704247340781 86.27579865138958 899.867 85.814 C 896.8849160119703 85.14196557121444 894.1197598827198 83.73067334954499 891.826 81.71 C 888.5098432563296 78.79849172768449 886.571717680143 74.62607756591639 886.486 70.214 C 886.4718353350548 69.89586455717148 886.4648335616697 69.57745057703669 886.465 69.25900000000001 C 886.3785805167039 64.63186564654099 888.359782588861 60.207156577543245 891.869 57.190000000000005 C 892.6481127832517 56.496356186659206 893.4758963813275 55.85939391862024 894.346 55.284000000000006 Q 902.227 50.04 915.293 49.923 L 930.938 49.923 L 930.938 40.665 C 930.95332224627 38.92520759912082 930.7449481961405 37.19066167538131 930.318 35.504 C 929.6235552937131 32.71173823798073 928.0917065945796 30.19866891425407 925.928 28.302 C 924.187717079746 26.807060961890343 922.1517605891013 25.695888724904172 919.953 25.040999999999997 Q 917.492 24.27 914.518 24.024 C 913.5480285131769 23.944818286611223 912.5751972834948 23.905784934803 911.602 23.907000000000004 C 909.3293544553401 23.89014497603412 907.0631839532457 24.15141952414163 904.854 24.685000000000002 C 902.0519398427017 25.360835983493793 899.4211751105681 26.612364836644723 897.129 28.360000000000003 C 895.7955813749742 29.361182960785293 894.6227489069543 30.559980954980446 893.651 31.915000000000013 C 892.1101659541741 34.09525522616441 891.2971780004773 36.706405946152366 891.328 39.37599999999999 L 888.164 39.259 C 888.1440558415801 34.8830963033166 889.9560605036686 30.698478772697953 893.161 27.71900000000001 C 893.7325781155046 27.15923890780823 894.3334207493522 26.63016358855913 894.961 26.134000000000004 C 898.5649563838693 23.29956065914346 902.8857122851005 21.522442066113083 907.441 21.001000000000005 C 908.821083757647 20.826405496336317 910.2109188577541 20.740229707865364 911.602 20.743 C 913.8470255096856 20.72788477502023 916.0878047624229 20.940303143177434 918.29 21.376999999999992 Q 922.378 22.217 925.549 24.171 C 926.3716791987923 24.677037661057874 927.1546113321608 25.245014473437454 927.891 25.87 C 930.951612713403 28.479757677732703 932.9980992806522 32.081814715936545 933.673 36.04699999999999 C 933.9373812892522 37.45450266231731 934.0809042581902 38.88203764706801 934.102 40.314 L 934.102 70.606 Q 934.102 80.554 935.594 84.425 C 935.6406554043606 84.54641388598556 935.6900008984969 84.66677688181802 935.742 84.786 L 935.742 85.314 Z M 1088.555 85.314 L 1084.922 85.314 Q 1083.863 81.661 1083.761 75.141 C 1083.7535961764834 74.66470276493004 1083.7499293969631 74.18835477089371 1083.75 73.71200000000003 C 1081.276931507974 77.74995995343632 1077.725623471356 81.01727417398025 1073.496 83.146 C 1070.1498830896646 84.84363504034609 1066.5176705069873 85.9052909025906 1062.784 86.277 C 1061.4569946215943 86.41751603048237 1060.1234228086603 86.48694855541109 1058.789 86.48499999999999 C 1056.7331029867025 86.50100406996745 1054.6824247340783 86.27579865138956 1052.679 85.814 C 1049.6972704816326 85.14180864351728 1046.9324755069376 83.73052523852374 1044.639 81.71 C 1041.3228432563296 78.79849172768446 1039.384717680143 74.62607756591638 1039.299 70.214 C 1039.2845018751095 69.89587206615805 1039.2771666838566 69.5774580822218 1039.277 69.259 C 1039.1908296589997 64.63170290605125 1041.1724106381241 60.20696639595841 1044.682 57.19 C 1045.4607919802613 56.49639466601364 1046.2882403146693 55.85943322603705 1047.158 55.284000000000006 Q 1055.039 50.04 1068.105 49.923 L 1083.75 49.923 L 1083.75 40.665 C 1083.7656490511488 38.92525073106039 1083.55761116701 37.19070546443657 1083.131 35.504000000000005 C 1082.436281706766 32.71161453704858 1080.904075202698 30.198530674079343 1078.74 28.302000000000003 C 1076.999717079746 26.807060961890357 1074.9637605891014 25.69588872490419 1072.765 25.041000000000004 Q 1070.305 24.27 1067.331 24.024 C 1066.3606961600667 23.944790732778927 1065.3875307420128 23.905757358108957 1064.414 23.907000000000004 C 1062.14135445534 23.890144976034108 1059.8751839532456 24.15141952414163 1057.666 24.685000000000013 C 1054.8639398427017 25.36083598349381 1052.233175110568 26.61236483664474 1049.941 28.360000000000007 C 1048.6079365717446 29.361260950390353 1047.4354451574588 30.56005501935384 1046.464 31.915000000000006 C 1044.9231659541742 34.095255226164426 1044.1101780004774 36.70640594615239 1044.141 39.376 L 1040.977 39.259 C 1040.9567978255832 34.88324845362965 1042.768429774383 30.69865424042854 1045.973 27.719000000000005 C 1046.5445781155045 27.159238907808238 1047.145420749352 26.630163588559128 1047.773 26.134 C 1051.3769563838691 23.29956065914346 1055.6977122851004 21.522442066113083 1060.253 21.001000000000005 C 1061.633083757647 20.82640549633631 1063.0229188577541 20.74022970786537 1064.414 20.743000000000013 C 1066.6590255096858 20.72788477502022 1068.899804762423 20.940303143177427 1071.102 21.376999999999992 Q 1075.19 22.217 1078.362 24.171 C 1079.184334879991 24.67708019477618 1079.9669314422788 25.245056085133776 1080.703 25.870000000000005 C 1083.763612713403 28.47975767773272 1085.8100992806521 32.08181471593657 1086.485 36.047 C 1086.7493812892521 37.4545026623173 1086.8929042581901 38.882037647067996 1086.914 40.31399999999999 L 1086.914 70.606 Q 1086.914 80.554 1088.406 84.425 C 1088.4529860788232 84.5464223338252 1088.5026650123532 84.66678538754525 1088.555 84.786 L 1088.555 85.314 Z M 468.457 53.204 L 468.457 54.2 C 468.4751121494163 57.373057257924046 468.2225299047343 60.54187715412028 467.702 63.67200000000001 Q 466.262 72.026 462.07 77.755 C 460.17575186685195 80.42668272282185 457.6857475690734 82.62088560257756 454.797 84.164 Q 450.348 86.485 444.668 86.485 C 442.23991351377464 86.49970807555499 439.8188676459906 86.22238400305608 437.457 85.659 C 435.50550989966496 85.18682481424172 433.6181808040319 84.48071325257717 431.836 83.55599999999998 C 428.21646675354634 81.72310342579193 425.1745973091268 78.92454200497309 423.047 75.47 L 423.047 109.689 L 419.883 109.689 L 419.883 21.915 L 423.047 21.915 L 423.047 33.224 C 424.397884901419 30.690669558985206 426.1895814953154 28.418455583357787 428.338 26.514000000000003 C 429.4378625679654 25.550860312759564 430.62918734304856 24.69747388405224 431.895 23.966 Q 437.461 20.743 444.551 20.743 C 447.36741351797025 20.70865965842194 450.16670832667285 21.185373262373105 452.813 22.149999999999995 C 456.5248509131865 23.57311167713886 459.7416173563492 26.046932602803217 462.07 29.26899999999999 C 464.0534416698109 31.975295291132575 465.54984801499035 35.00668562132654 466.492 38.22699999999999 Q 467.72 42.245 468.181 47.091 C 468.3694038902355 49.12317027622214 468.4615069632276 51.16311986028105 468.457 53.20399999999997 Z M 873.926 53.204 L 873.926 54.2 C 873.9441121494164 57.373057257924046 873.6915299047344 60.54187715412028 873.171 63.67200000000001 Q 871.73 72.026 867.539 77.755 C 865.644751866852 80.42668272282187 863.1547475690734 82.62088560257756 860.266 84.164 Q 855.817 86.485 850.137 86.485 C 847.7089135137746 86.49970807555498 845.2878676459907 86.22238400305608 842.926 85.659 C 840.9745098996649 85.18682481424172 839.0871808040318 84.48071325257719 837.305 83.556 C 833.6854667535463 81.72310342579193 830.6435973091267 78.92454200497309 828.516 75.47 L 828.516 109.689 L 825.352 109.689 L 825.352 21.915 L 828.516 21.915 L 828.516 33.224 C 829.8665856360451 30.690749514559197 831.6579394729071 28.418540772528242 833.806 26.514000000000003 C 834.9058625679654 25.55086031275956 836.0971873430486 24.697473884052247 837.363 23.96600000000001 Q 842.93 20.743 850.02 20.743 C 852.8364135179703 20.708659658421933 855.6357083266729 21.185373262373098 858.282 22.149999999999995 C 861.9938509131865 23.573111677138872 865.2106173563492 26.04693260280324 867.539 29.269000000000005 C 869.5224416698109 31.975295291132575 871.0188480149903 35.00668562132654 871.961 38.22699999999999 Q 873.189 42.245 873.649 47.091 C 873.8377377491172 49.12315444829742 873.9301745304249 51.16310406610904 873.926 53.20399999999997 Z M 540.234 55.021 L 540.234 52.384 C 540.2096304942165 48.535030792349275 540.7669195889307 44.70446896891129 541.887 41.022000000000006 C 542.3903221230697 39.39467467584365 543.0130120367284 37.80669841186507 543.75 36.271 C 545.0183092230316 33.57843044796033 546.6820303974529 31.09060103377809 548.686 28.890000000000004 C 550.0964560243671 27.35786415670679 551.6850674383358 25.99989011412371 553.418 24.845 C 557.3742022037609 22.154865340441997 562.05185624106 20.72486557438141 566.836 20.743000000000002 C 569.8458638764552 20.708478584147024 572.8358357059512 21.234784161937412 575.653 22.295000000000005 C 578.936851430404 23.582834580985658 581.8618213221816 25.643382738591903 584.18 28.302 C 587.2114526872826 31.745147461072065 589.2743943225156 35.931421294630354 590.158 40.43300000000001 C 590.6793456056043 42.976918624746226 590.9340557000922 45.56825869130015 590.918 48.16499999999999 L 590.918 51.505 L 543.398 51.505 L 543.398 54.962 C 543.3540300139459 59.92515842693052 544.4674858346178 64.83025316461426 546.65 69.28800000000001 C 547.9560702402433 71.98730230833952 549.7060602259145 74.44817290824027 551.827 76.56800000000001 C 552.9848745995425 77.71189943665301 554.2538044496151 78.73762889835373 555.615 79.63 C 559.2801850410463 82.0866737608026 563.5956682822228 83.3924965764576 568.008 83.38 C 569.6396372082747 83.38720570292509 571.2694217856143 83.26919258378645 572.883 83.027 Q 575.584 82.609 577.844 81.695 C 578.1928795634034 81.55422928267416 578.5373738208318 81.40282522374628 578.877 81.241 C 581.0829148134768 80.1745382036847 583.0845974836991 78.72929217699395 584.791 76.971 C 585.5110045911034 76.23743010634256 586.1871755243578 75.46208743621085 586.816 74.649 L 589.043 76.231 C 585.2020706918507 81.91217202133932 579.0244693934329 85.58095939975263 572.198 86.235 C 570.807831522046 86.40472903780488 569.4084877583996 86.48822210246158 568.008 86.485 Q 560.332 86.485 553.916 82.355 C 549.7410253948394 79.6526921252522 546.3538069810546 75.89567045863329 544.097 71.464 C 544.0192122353495 71.31557952363151 543.9425433943146 71.1665752977941 543.867 71.017 C 541.799305923334 66.87287348139726 540.5936664928779 62.35240600061242 540.323 57.72899999999999 C 540.263385894249 56.827566366130014 540.2337028917905 55.924402650872395 540.234 55.021000000000015 Z M 649.629 21.915 L 649.629 25.138 L 624.727 25.138 L 624.727 85.314 L 621.563 85.314 L 621.563 25.138 L 597.949 25.138 L 597.949 21.915 L 649.629 21.915 Z M 423.047 39.903 L 423.047 69.552 C 423.99745564271456 72.16379801731318 425.45968924571235 74.55960369048813 427.348 76.599 C 428.4670839237806 77.78905133300776 429.7285963267874 78.83661714370484 431.104 79.718 C 433.5263532023498 81.2552392415577 436.2243663410332 82.30707039595127 439.048 82.815 C 440.9209804027927 83.1611138301257 442.82233214078786 83.33052463826543 444.727 83.321 Q 454.453 83.321 459.844 75.587 C 461.32810739591457 73.40270628782187 462.4686815808134 71.00385821650738 463.226 68.47399999999999 Q 465.234 62.054 465.234 52.97 C 465.24659410675343 50.31013847409458 465.0698139288525 47.652754779069944 464.705 45.01799999999999 Q 464.086 40.71 462.745 37.196 C 462.0037632464463 35.22013485065736 461.0191760963999 33.34434684456431 459.814 31.612 C 456.99556900911915 27.394989579073574 452.4590927217073 24.637459018759905 447.418 24.076999999999998 C 446.486105854405 23.96205138606649 445.5479552203946 23.90527473680278 444.609 23.907 C 442.3386191192275 23.889511548538966 440.0760339507199 24.174688751704014 437.881 24.754999999999992 C 435.4258148758351 25.411746948033578 433.1164748913491 26.525536160471866 431.074 28.038000000000004 Q 425.508 32.169 423.047 39.903 Z M 828.516 39.903 L 828.516 69.552 C 829.4661576521238 72.16371606946906 830.9280476032925 74.55951571734948 832.816 76.599 C 833.9350839237807 77.78905133300776 835.1965963267874 78.83661714370484 836.572 79.718 C 838.9946554745652 81.25535917367988 841.6930193830401 82.30719467079084 844.517 82.815 C 846.3896520500308 83.16105145207285 848.2906660538289 83.33046199908269 850.195 83.321 Q 859.922 83.321 865.313 75.587 C 866.7971073959145 73.40270628782189 867.9376815808134 71.0038582165074 868.695 68.47400000000002 Q 870.703 62.054 870.703 52.97 C 870.7155941067534 50.31013847409458 870.5388139288525 47.652754779069944 870.174 45.01799999999999 Q 869.555 40.71 868.214 37.196 C 867.4727632464463 35.22013485065735 866.4881760963999 33.344346844564306 865.283 31.611999999999988 C 862.4645690091191 27.394989579073567 857.9280927217072 24.637459018759895 852.887 24.077 C 851.9551058544049 23.962051386066495 851.0169552203946 23.905274736802788 850.078 23.907000000000004 C 847.8076191192275 23.889511548538973 845.5450339507199 24.174688751704025 843.35 24.755 C 840.8948148758351 25.41174694803357 838.5854748913491 26.52553616047186 836.543 28.038 Q 830.977 32.169 828.516 39.903 Z M 3.164 3.165 L 3.164 45.646 L 30.059 45.646 C 32.46044772143937 45.6669900626146 34.85352712249942 45.36015913139476 37.17200000000001 44.734 C 40.49117642481884 43.831829100935465 43.52082273750212 42.08706974064657 45.96699999999999 39.669000000000004 C 49.797388289763525 35.926546083998204 51.97553771944116 30.810000720680097 52.018 25.45499999999999 C 52.026813607983726 25.173420083182016 52.03114748957334 24.89171777985732 52.031000000000006 24.609999999999996 C 52.053974886266104 22.28392947149286 51.7362724823917 19.967026574945372 51.088 17.733000000000004 C 50.07128875813352 14.290056315479836 48.06643248309463 11.221228448068587 45.321999999999996 8.906999999999991 C 42.76198247754466 6.755362889188335 39.75640751492356 5.198611675594362 36.52199999999999 4.349 Q 33.183 3.424 29.221 3.222 C 28.46560783862172 3.1837134424657045 27.70936174695809 3.1647072576223043 26.953000000000014 3.164999999999998 L 3.164 3.165 Z M 958.184 21.915 L 958.184 85.314 L 955.02 85.314 L 955.02 21.915 L 958.184 21.915 Z M 396.445 68.204 L 396.445 53.146 L 381.797 53.146 C 379.17897073027683 53.13242438935117 376.56331527448003 53.30586570550788 373.97 53.665000000000006 Q 365.965 54.82 360.996 58.536 Q 355.137 62.931 355.137 69.493 C 355.1022382496031 73.00839130874965 356.55557634416266 76.37457079444913 359.138 78.76 C 359.3423655423732 78.95767110849732 359.55176773852816 79.15006771228934 359.766 79.337 C 362.14567465386904 81.39850001757402 365.07495228043393 82.7211753819952 368.195 83.143 C 369.2838828168292 83.30396637320821 370.3832885027113 83.38318776194463 371.484 83.38 C 374.0269327476475 83.39621213185879 376.5633885795948 83.12176492676184 379.044 82.56199999999998 C 381.7883623828902 81.94138024658999 384.4113440230103 80.87164433616616 386.807 79.39600000000002 Q 393.223 75.411 396.445 68.204 Z M 930.938 68.204 L 930.938 53.146 L 916.289 53.146 C 913.6709707302768 53.13242438935117 911.05531527448 53.30586570550788 908.462 53.665000000000006 Q 900.457 54.82 895.488 58.536 Q 889.629 62.931 889.629 69.493 C 889.5942382496031 73.00839130874965 891.0475763441627 76.37457079444913 893.63 78.76 C 893.8343655423732 78.95767110849732 894.0437677385282 79.15006771228934 894.258 79.337 C 896.637674653869 81.39850001757402 899.566952280434 82.7211753819952 902.687 83.143 C 903.7762129568052 83.30401616447334 904.8759547748282 83.38323768753456 905.977 83.38 C 908.5199327476475 83.39621213185879 911.0563885795948 83.12176492676184 913.537 82.562 C 916.2810157563421 81.94127570449585 918.9036516075516 80.87154301898572 921.299 79.396 Q 927.715 75.411 930.938 68.204 Z M 1083.75 68.204 L 1083.75 53.146 L 1069.102 53.146 C 1066.483970730277 53.13242438935117 1063.8683152744802 53.30586570550788 1061.275 53.665000000000006 Q 1053.27 54.82 1048.301 58.536 Q 1042.441 62.931 1042.441 69.493 C 1042.4062382496031 73.00839130874965 1043.8595763441626 76.37457079444913 1046.442 78.76 C 1046.6463655423731 78.95767110849732 1046.8557677385281 79.15006771228934 1047.07 79.337 C 1049.449674653869 81.39850001757405 1052.3789522804339 82.72117538199521 1055.499 83.143 C 1056.5882129568054 83.30401616447334 1057.6879547748283 83.38323768753456 1058.789 83.38 C 1061.3319327476474 83.39621213185877 1063.8683885795947 83.12176492676184 1066.349 82.562 C 1069.093015756342 81.94127570449587 1071.7156516075518 80.87154301898575 1074.111 79.39600000000002 Q 1080.527 75.411 1083.75 68.204 Z M 543.574 48.341 L 587.754 48.341 L 587.754 47.579 Q 587.754 41.134 585.029 35.597 C 584.0034604180877 33.47205615165378 582.6465142478909 31.523724486386136 581.009 29.824999999999996 C 579.9599434684303 28.749401295594975 578.7925126084408 27.795999426603608 577.529 26.98299999999999 C 574.3432779596802 24.93159708975797 570.6248054731496 23.861923343515762 566.836 23.907 Q 557.578 23.907 551.133 30.792 C 547.7685728331026 34.4187846574891 545.4283782978745 38.87450676991046 544.352 43.703 C 543.9936323444823 45.230748072581335 543.7337640482781 46.77993722141773 543.574 48.34100000000001 Z M 940.547 3.399 Q 940.547 2.052 941.484 1.085 C 942.0550896794662 0.4755298862944578 942.8508103886857 0.12645349887121327 943.686 0.11900000000000022 C 943.7139953197025 0.11834915007732999 943.7419971201236 0.11801579531040957 943.77 0.11799999999999922 C 944.627044332594 0.10690747374308324 945.4516711125157 0.445206638710931 946.054 1.0549999999999993 C 946.0640544028499 1.0649454487625738 946.0740545512374 1.0749455971499862 946.084 1.084999999999998 C 946.4556116079 1.447032172955007 946.734486947393 1.8933013201632503 946.897 2.3859999999999997 C 947.0009869358087 2.713536749221661 947.052951870784 3.055358042273657 947.051 3.398999999999999 Q 947.051 4.747 946.084 5.685 Q 945.117 6.622 943.77 6.622 Q 942.422 6.622 941.484 5.685 C 940.8795657023237 5.095503039128468 940.5412520623555 4.285283393356218 940.547 3.4410000000000003 C 940.5469236159554 3.427000104187899 940.5469236159554 3.412999895812103 940.547 3.399000000000002 Z M 966.621 3.399 Q 966.621 2.052 967.559 1.085 C 968.1298506100882 0.47578000126125697 968.9251588569128 0.12672604104656116 969.76 0.11899999999999977 C 969.7879953197024 0.11834915007732913 969.8159971201237 0.11801579531040914 969.844 0.11799999999999966 C 970.701044332594 0.10690747374308324 971.5256711125157 0.445206638710931 972.128 1.0549999999999993 C 972.13805440285 1.0649454487625738 972.1480545512375 1.0749455971499862 972.158 1.084999999999998 C 972.5299744887327 1.4469240547460183 972.809198460019 1.8932021710157367 972.972 2.3859999999999997 C 973.0756479051104 2.713590838073076 973.1272752196828 3.055410901222704 973.125 3.399 Q 973.125 4.747 972.158 5.685 Q 971.191 6.622 969.844 6.622 Q 968.496 6.622 967.559 5.685 C 966.9541981511387 5.095671689512853 966.6155144883685 4.28543060288564 966.621 3.4410000000000003 C 966.6209236159553 3.427000104187899 966.6209236159553 3.412999895812103 966.621 3.399000000000002 Z" stroke-linecap="round" />
</g>
</svg>